<mxfile host="app.diagrams.net" modified="2023-08-26T08:40:52.388Z" agent="Mozilla/5.0 (Windows NT 10.0; Win64; x64) AppleWebKit/537.36 (KHTML, like Gecko) Chrome/116.0.0.0 Safari/537.36 Edg/116.0.1938.54" etag="jYOK7HSTdqft8c6p4Z4f" version="21.6.9" type="github">
  <diagram name="第 1 页" id="8RlSk1Tyo_QDvThtbTEH">
    <mxGraphModel dx="1379" dy="751" grid="1" gridSize="10" guides="1" tooltips="1" connect="1" arrows="1" fold="1" page="1" pageScale="1" pageWidth="827" pageHeight="1169" math="0" shadow="0">
      <root>
        <mxCell id="0" />
        <mxCell id="1" parent="0" />
        <mxCell id="6xhskzPP5MsPAM02uVho-1" value="" style="group" parent="1" vertex="1" connectable="0">
          <mxGeometry y="380" width="310" height="180" as="geometry" />
        </mxCell>
        <mxCell id="hXuhkghR_avalVpv93T1-261" value="" style="group" parent="6xhskzPP5MsPAM02uVho-1" vertex="1" connectable="0">
          <mxGeometry x="30" width="280" height="180" as="geometry" />
        </mxCell>
        <mxCell id="hXuhkghR_avalVpv93T1-16" value="" style="shape=table;startSize=0;container=1;collapsible=0;childLayout=tableLayout;" parent="hXuhkghR_avalVpv93T1-261" vertex="1">
          <mxGeometry x="10" y="149" width="230" height="20" as="geometry" />
        </mxCell>
        <mxCell id="hXuhkghR_avalVpv93T1-17" value="" style="shape=tableRow;horizontal=0;startSize=0;swimlaneHead=0;swimlaneBody=0;strokeColor=inherit;top=0;left=0;bottom=0;right=0;collapsible=0;dropTarget=0;fillColor=none;points=[[0,0.5],[1,0.5]];portConstraint=eastwest;" parent="hXuhkghR_avalVpv93T1-16" vertex="1">
          <mxGeometry width="230" height="20" as="geometry" />
        </mxCell>
        <mxCell id="hXuhkghR_avalVpv93T1-18" value="" style="shape=partialRectangle;html=1;whiteSpace=wrap;connectable=0;strokeColor=#6c8ebf;overflow=hidden;fillColor=#dae8fc;top=0;left=0;bottom=0;right=0;pointerEvents=1;" parent="hXuhkghR_avalVpv93T1-17" vertex="1">
          <mxGeometry width="19" height="20" as="geometry">
            <mxRectangle width="19" height="20" as="alternateBounds" />
          </mxGeometry>
        </mxCell>
        <mxCell id="hXuhkghR_avalVpv93T1-19" value="" style="shape=partialRectangle;html=1;whiteSpace=wrap;connectable=0;strokeColor=#6c8ebf;overflow=hidden;fillColor=#dae8fc;top=0;left=0;bottom=0;right=0;pointerEvents=1;" parent="hXuhkghR_avalVpv93T1-17" vertex="1">
          <mxGeometry x="19" width="19" height="20" as="geometry">
            <mxRectangle width="19" height="20" as="alternateBounds" />
          </mxGeometry>
        </mxCell>
        <mxCell id="hXuhkghR_avalVpv93T1-20" value="" style="shape=partialRectangle;html=1;whiteSpace=wrap;connectable=0;strokeColor=#6c8ebf;overflow=hidden;fillColor=#dae8fc;top=0;left=0;bottom=0;right=0;pointerEvents=1;" parent="hXuhkghR_avalVpv93T1-17" vertex="1">
          <mxGeometry x="38" width="20" height="20" as="geometry">
            <mxRectangle width="20" height="20" as="alternateBounds" />
          </mxGeometry>
        </mxCell>
        <mxCell id="hXuhkghR_avalVpv93T1-21" value="" style="shape=partialRectangle;html=1;whiteSpace=wrap;connectable=0;strokeColor=#6c8ebf;overflow=hidden;fillColor=#dae8fc;top=0;left=0;bottom=0;right=0;pointerEvents=1;" parent="hXuhkghR_avalVpv93T1-17" vertex="1">
          <mxGeometry x="58" width="19" height="20" as="geometry">
            <mxRectangle width="19" height="20" as="alternateBounds" />
          </mxGeometry>
        </mxCell>
        <mxCell id="hXuhkghR_avalVpv93T1-22" value="" style="shape=partialRectangle;html=1;whiteSpace=wrap;connectable=0;strokeColor=#6c8ebf;overflow=hidden;fillColor=#dae8fc;top=0;left=0;bottom=0;right=0;pointerEvents=1;" parent="hXuhkghR_avalVpv93T1-17" vertex="1">
          <mxGeometry x="77" width="19" height="20" as="geometry">
            <mxRectangle width="19" height="20" as="alternateBounds" />
          </mxGeometry>
        </mxCell>
        <mxCell id="hXuhkghR_avalVpv93T1-23" style="shape=partialRectangle;html=1;whiteSpace=wrap;connectable=0;strokeColor=#6c8ebf;overflow=hidden;fillColor=#dae8fc;top=0;left=0;bottom=0;right=0;pointerEvents=1;" parent="hXuhkghR_avalVpv93T1-17" vertex="1">
          <mxGeometry x="96" width="19" height="20" as="geometry">
            <mxRectangle width="19" height="20" as="alternateBounds" />
          </mxGeometry>
        </mxCell>
        <mxCell id="hXuhkghR_avalVpv93T1-24" style="shape=partialRectangle;html=1;whiteSpace=wrap;connectable=0;strokeColor=#6c8ebf;overflow=hidden;fillColor=#dae8fc;top=0;left=0;bottom=0;right=0;pointerEvents=1;" parent="hXuhkghR_avalVpv93T1-17" vertex="1">
          <mxGeometry x="115" width="18" height="20" as="geometry">
            <mxRectangle width="18" height="20" as="alternateBounds" />
          </mxGeometry>
        </mxCell>
        <mxCell id="hXuhkghR_avalVpv93T1-25" style="shape=partialRectangle;html=1;whiteSpace=wrap;connectable=0;strokeColor=#6c8ebf;overflow=hidden;fillColor=#dae8fc;top=0;left=0;bottom=0;right=0;pointerEvents=1;" parent="hXuhkghR_avalVpv93T1-17" vertex="1">
          <mxGeometry x="133" width="20" height="20" as="geometry">
            <mxRectangle width="20" height="20" as="alternateBounds" />
          </mxGeometry>
        </mxCell>
        <mxCell id="hXuhkghR_avalVpv93T1-26" style="shape=partialRectangle;html=1;whiteSpace=wrap;connectable=0;strokeColor=#6c8ebf;overflow=hidden;fillColor=#dae8fc;top=0;left=0;bottom=0;right=0;pointerEvents=1;" parent="hXuhkghR_avalVpv93T1-17" vertex="1">
          <mxGeometry x="153" width="20" height="20" as="geometry">
            <mxRectangle width="20" height="20" as="alternateBounds" />
          </mxGeometry>
        </mxCell>
        <mxCell id="hXuhkghR_avalVpv93T1-27" style="shape=partialRectangle;html=1;whiteSpace=wrap;connectable=0;strokeColor=#6c8ebf;overflow=hidden;fillColor=#dae8fc;top=0;left=0;bottom=0;right=0;pointerEvents=1;" parent="hXuhkghR_avalVpv93T1-17" vertex="1">
          <mxGeometry x="173" width="19" height="20" as="geometry">
            <mxRectangle width="19" height="20" as="alternateBounds" />
          </mxGeometry>
        </mxCell>
        <mxCell id="hXuhkghR_avalVpv93T1-28" style="shape=partialRectangle;html=1;whiteSpace=wrap;connectable=0;strokeColor=#6c8ebf;overflow=hidden;fillColor=#dae8fc;top=0;left=0;bottom=0;right=0;pointerEvents=1;" parent="hXuhkghR_avalVpv93T1-17" vertex="1">
          <mxGeometry x="192" width="19" height="20" as="geometry">
            <mxRectangle width="19" height="20" as="alternateBounds" />
          </mxGeometry>
        </mxCell>
        <mxCell id="hXuhkghR_avalVpv93T1-29" style="shape=partialRectangle;html=1;whiteSpace=wrap;connectable=0;strokeColor=#6c8ebf;overflow=hidden;fillColor=#dae8fc;top=0;left=0;bottom=0;right=0;pointerEvents=1;" parent="hXuhkghR_avalVpv93T1-17" vertex="1">
          <mxGeometry x="211" width="19" height="20" as="geometry">
            <mxRectangle width="19" height="20" as="alternateBounds" />
          </mxGeometry>
        </mxCell>
        <mxCell id="hXuhkghR_avalVpv93T1-33" value="" style="shape=table;startSize=0;container=1;collapsible=0;childLayout=tableLayout;" parent="hXuhkghR_avalVpv93T1-261" vertex="1">
          <mxGeometry x="10" y="114" width="230" height="20" as="geometry" />
        </mxCell>
        <mxCell id="hXuhkghR_avalVpv93T1-34" value="" style="shape=tableRow;horizontal=0;startSize=0;swimlaneHead=0;swimlaneBody=0;strokeColor=inherit;top=0;left=0;bottom=0;right=0;collapsible=0;dropTarget=0;fillColor=none;points=[[0,0.5],[1,0.5]];portConstraint=eastwest;" parent="hXuhkghR_avalVpv93T1-33" vertex="1">
          <mxGeometry width="230" height="20" as="geometry" />
        </mxCell>
        <mxCell id="hXuhkghR_avalVpv93T1-35" value="" style="shape=partialRectangle;html=1;whiteSpace=wrap;connectable=0;strokeColor=#6c8ebf;overflow=hidden;fillColor=#dae8fc;top=0;left=0;bottom=0;right=0;pointerEvents=1;" parent="hXuhkghR_avalVpv93T1-34" vertex="1">
          <mxGeometry width="19" height="20" as="geometry">
            <mxRectangle width="19" height="20" as="alternateBounds" />
          </mxGeometry>
        </mxCell>
        <mxCell id="hXuhkghR_avalVpv93T1-36" value="" style="shape=partialRectangle;html=1;whiteSpace=wrap;connectable=0;strokeColor=#6c8ebf;overflow=hidden;fillColor=#dae8fc;top=0;left=0;bottom=0;right=0;pointerEvents=1;" parent="hXuhkghR_avalVpv93T1-34" vertex="1">
          <mxGeometry x="19" width="19" height="20" as="geometry">
            <mxRectangle width="19" height="20" as="alternateBounds" />
          </mxGeometry>
        </mxCell>
        <mxCell id="hXuhkghR_avalVpv93T1-37" value="" style="shape=partialRectangle;html=1;whiteSpace=wrap;connectable=0;strokeColor=#6c8ebf;overflow=hidden;fillColor=#dae8fc;top=0;left=0;bottom=0;right=0;pointerEvents=1;" parent="hXuhkghR_avalVpv93T1-34" vertex="1">
          <mxGeometry x="38" width="20" height="20" as="geometry">
            <mxRectangle width="20" height="20" as="alternateBounds" />
          </mxGeometry>
        </mxCell>
        <mxCell id="hXuhkghR_avalVpv93T1-38" value="" style="shape=partialRectangle;html=1;whiteSpace=wrap;connectable=0;strokeColor=#6c8ebf;overflow=hidden;fillColor=#dae8fc;top=0;left=0;bottom=0;right=0;pointerEvents=1;" parent="hXuhkghR_avalVpv93T1-34" vertex="1">
          <mxGeometry x="58" width="19" height="20" as="geometry">
            <mxRectangle width="19" height="20" as="alternateBounds" />
          </mxGeometry>
        </mxCell>
        <mxCell id="hXuhkghR_avalVpv93T1-39" value="" style="shape=partialRectangle;html=1;whiteSpace=wrap;connectable=0;strokeColor=#6c8ebf;overflow=hidden;fillColor=#dae8fc;top=0;left=0;bottom=0;right=0;pointerEvents=1;" parent="hXuhkghR_avalVpv93T1-34" vertex="1">
          <mxGeometry x="77" width="19" height="20" as="geometry">
            <mxRectangle width="19" height="20" as="alternateBounds" />
          </mxGeometry>
        </mxCell>
        <mxCell id="hXuhkghR_avalVpv93T1-40" style="shape=partialRectangle;html=1;whiteSpace=wrap;connectable=0;strokeColor=#6c8ebf;overflow=hidden;fillColor=#dae8fc;top=0;left=0;bottom=0;right=0;pointerEvents=1;" parent="hXuhkghR_avalVpv93T1-34" vertex="1">
          <mxGeometry x="96" width="19" height="20" as="geometry">
            <mxRectangle width="19" height="20" as="alternateBounds" />
          </mxGeometry>
        </mxCell>
        <mxCell id="hXuhkghR_avalVpv93T1-41" style="shape=partialRectangle;html=1;whiteSpace=wrap;connectable=0;strokeColor=#6c8ebf;overflow=hidden;fillColor=#dae8fc;top=0;left=0;bottom=0;right=0;pointerEvents=1;" parent="hXuhkghR_avalVpv93T1-34" vertex="1">
          <mxGeometry x="115" width="18" height="20" as="geometry">
            <mxRectangle width="18" height="20" as="alternateBounds" />
          </mxGeometry>
        </mxCell>
        <mxCell id="hXuhkghR_avalVpv93T1-42" style="shape=partialRectangle;html=1;whiteSpace=wrap;connectable=0;strokeColor=#6c8ebf;overflow=hidden;fillColor=#dae8fc;top=0;left=0;bottom=0;right=0;pointerEvents=1;" parent="hXuhkghR_avalVpv93T1-34" vertex="1">
          <mxGeometry x="133" width="20" height="20" as="geometry">
            <mxRectangle width="20" height="20" as="alternateBounds" />
          </mxGeometry>
        </mxCell>
        <mxCell id="hXuhkghR_avalVpv93T1-43" style="shape=partialRectangle;html=1;whiteSpace=wrap;connectable=0;strokeColor=#6c8ebf;overflow=hidden;fillColor=#dae8fc;top=0;left=0;bottom=0;right=0;pointerEvents=1;" parent="hXuhkghR_avalVpv93T1-34" vertex="1">
          <mxGeometry x="153" width="20" height="20" as="geometry">
            <mxRectangle width="20" height="20" as="alternateBounds" />
          </mxGeometry>
        </mxCell>
        <mxCell id="hXuhkghR_avalVpv93T1-44" style="shape=partialRectangle;html=1;whiteSpace=wrap;connectable=0;strokeColor=#6c8ebf;overflow=hidden;fillColor=#dae8fc;top=0;left=0;bottom=0;right=0;pointerEvents=1;" parent="hXuhkghR_avalVpv93T1-34" vertex="1">
          <mxGeometry x="173" width="19" height="20" as="geometry">
            <mxRectangle width="19" height="20" as="alternateBounds" />
          </mxGeometry>
        </mxCell>
        <mxCell id="hXuhkghR_avalVpv93T1-45" style="shape=partialRectangle;html=1;whiteSpace=wrap;connectable=0;strokeColor=#6c8ebf;overflow=hidden;fillColor=#dae8fc;top=0;left=0;bottom=0;right=0;pointerEvents=1;" parent="hXuhkghR_avalVpv93T1-34" vertex="1">
          <mxGeometry x="192" width="19" height="20" as="geometry">
            <mxRectangle width="19" height="20" as="alternateBounds" />
          </mxGeometry>
        </mxCell>
        <mxCell id="hXuhkghR_avalVpv93T1-46" style="shape=partialRectangle;html=1;whiteSpace=wrap;connectable=0;strokeColor=#6c8ebf;overflow=hidden;fillColor=#dae8fc;top=0;left=0;bottom=0;right=0;pointerEvents=1;" parent="hXuhkghR_avalVpv93T1-34" vertex="1">
          <mxGeometry x="211" width="19" height="20" as="geometry">
            <mxRectangle width="19" height="20" as="alternateBounds" />
          </mxGeometry>
        </mxCell>
        <mxCell id="hXuhkghR_avalVpv93T1-48" style="edgeStyle=orthogonalEdgeStyle;rounded=0;orthogonalLoop=1;jettySize=auto;html=1;exitX=0.5;exitY=0;exitDx=0;exitDy=0;entryX=0.5;entryY=1;entryDx=0;entryDy=0;" parent="hXuhkghR_avalVpv93T1-261" source="hXuhkghR_avalVpv93T1-16" target="hXuhkghR_avalVpv93T1-33" edge="1">
          <mxGeometry relative="1" as="geometry" />
        </mxCell>
        <mxCell id="DDwUIjJJvKXzeer0RHnv-6" style="edgeStyle=orthogonalEdgeStyle;rounded=0;orthogonalLoop=1;jettySize=auto;html=1;exitX=1;exitY=0.5;exitDx=0;exitDy=0;" edge="1" parent="hXuhkghR_avalVpv93T1-261" source="hXuhkghR_avalVpv93T1-50">
          <mxGeometry relative="1" as="geometry">
            <mxPoint x="310" y="89" as="targetPoint" />
          </mxGeometry>
        </mxCell>
        <mxCell id="hXuhkghR_avalVpv93T1-50" value="" style="shape=table;startSize=0;container=1;collapsible=0;childLayout=tableLayout;" parent="hXuhkghR_avalVpv93T1-261" vertex="1">
          <mxGeometry x="10" y="79" width="230" height="20" as="geometry" />
        </mxCell>
        <mxCell id="hXuhkghR_avalVpv93T1-51" value="" style="shape=tableRow;horizontal=0;startSize=0;swimlaneHead=0;swimlaneBody=0;strokeColor=inherit;top=0;left=0;bottom=0;right=0;collapsible=0;dropTarget=0;fillColor=none;points=[[0,0.5],[1,0.5]];portConstraint=eastwest;" parent="hXuhkghR_avalVpv93T1-50" vertex="1">
          <mxGeometry width="230" height="20" as="geometry" />
        </mxCell>
        <mxCell id="hXuhkghR_avalVpv93T1-52" value="" style="shape=partialRectangle;html=1;whiteSpace=wrap;connectable=0;strokeColor=#6c8ebf;overflow=hidden;fillColor=#dae8fc;top=0;left=0;bottom=0;right=0;pointerEvents=1;" parent="hXuhkghR_avalVpv93T1-51" vertex="1">
          <mxGeometry width="19" height="20" as="geometry">
            <mxRectangle width="19" height="20" as="alternateBounds" />
          </mxGeometry>
        </mxCell>
        <mxCell id="hXuhkghR_avalVpv93T1-53" value="" style="shape=partialRectangle;html=1;whiteSpace=wrap;connectable=0;strokeColor=#6c8ebf;overflow=hidden;fillColor=#dae8fc;top=0;left=0;bottom=0;right=0;pointerEvents=1;" parent="hXuhkghR_avalVpv93T1-51" vertex="1">
          <mxGeometry x="19" width="19" height="20" as="geometry">
            <mxRectangle width="19" height="20" as="alternateBounds" />
          </mxGeometry>
        </mxCell>
        <mxCell id="hXuhkghR_avalVpv93T1-54" value="" style="shape=partialRectangle;html=1;whiteSpace=wrap;connectable=0;strokeColor=#6c8ebf;overflow=hidden;fillColor=#dae8fc;top=0;left=0;bottom=0;right=0;pointerEvents=1;" parent="hXuhkghR_avalVpv93T1-51" vertex="1">
          <mxGeometry x="38" width="20" height="20" as="geometry">
            <mxRectangle width="20" height="20" as="alternateBounds" />
          </mxGeometry>
        </mxCell>
        <mxCell id="hXuhkghR_avalVpv93T1-55" value="" style="shape=partialRectangle;html=1;whiteSpace=wrap;connectable=0;strokeColor=#6c8ebf;overflow=hidden;fillColor=#dae8fc;top=0;left=0;bottom=0;right=0;pointerEvents=1;" parent="hXuhkghR_avalVpv93T1-51" vertex="1">
          <mxGeometry x="58" width="19" height="20" as="geometry">
            <mxRectangle width="19" height="20" as="alternateBounds" />
          </mxGeometry>
        </mxCell>
        <mxCell id="hXuhkghR_avalVpv93T1-56" value="" style="shape=partialRectangle;html=1;whiteSpace=wrap;connectable=0;strokeColor=#6c8ebf;overflow=hidden;fillColor=#dae8fc;top=0;left=0;bottom=0;right=0;pointerEvents=1;" parent="hXuhkghR_avalVpv93T1-51" vertex="1">
          <mxGeometry x="77" width="19" height="20" as="geometry">
            <mxRectangle width="19" height="20" as="alternateBounds" />
          </mxGeometry>
        </mxCell>
        <mxCell id="hXuhkghR_avalVpv93T1-57" style="shape=partialRectangle;html=1;whiteSpace=wrap;connectable=0;strokeColor=#6c8ebf;overflow=hidden;fillColor=#dae8fc;top=0;left=0;bottom=0;right=0;pointerEvents=1;" parent="hXuhkghR_avalVpv93T1-51" vertex="1">
          <mxGeometry x="96" width="19" height="20" as="geometry">
            <mxRectangle width="19" height="20" as="alternateBounds" />
          </mxGeometry>
        </mxCell>
        <mxCell id="hXuhkghR_avalVpv93T1-58" style="shape=partialRectangle;html=1;whiteSpace=wrap;connectable=0;strokeColor=#6c8ebf;overflow=hidden;fillColor=#dae8fc;top=0;left=0;bottom=0;right=0;pointerEvents=1;" parent="hXuhkghR_avalVpv93T1-51" vertex="1">
          <mxGeometry x="115" width="18" height="20" as="geometry">
            <mxRectangle width="18" height="20" as="alternateBounds" />
          </mxGeometry>
        </mxCell>
        <mxCell id="hXuhkghR_avalVpv93T1-59" style="shape=partialRectangle;html=1;whiteSpace=wrap;connectable=0;strokeColor=#6c8ebf;overflow=hidden;fillColor=#dae8fc;top=0;left=0;bottom=0;right=0;pointerEvents=1;" parent="hXuhkghR_avalVpv93T1-51" vertex="1">
          <mxGeometry x="133" width="20" height="20" as="geometry">
            <mxRectangle width="20" height="20" as="alternateBounds" />
          </mxGeometry>
        </mxCell>
        <mxCell id="hXuhkghR_avalVpv93T1-60" style="shape=partialRectangle;html=1;whiteSpace=wrap;connectable=0;strokeColor=#6c8ebf;overflow=hidden;fillColor=#dae8fc;top=0;left=0;bottom=0;right=0;pointerEvents=1;" parent="hXuhkghR_avalVpv93T1-51" vertex="1">
          <mxGeometry x="153" width="20" height="20" as="geometry">
            <mxRectangle width="20" height="20" as="alternateBounds" />
          </mxGeometry>
        </mxCell>
        <mxCell id="hXuhkghR_avalVpv93T1-61" style="shape=partialRectangle;html=1;whiteSpace=wrap;connectable=0;strokeColor=#6c8ebf;overflow=hidden;fillColor=#dae8fc;top=0;left=0;bottom=0;right=0;pointerEvents=1;" parent="hXuhkghR_avalVpv93T1-51" vertex="1">
          <mxGeometry x="173" width="19" height="20" as="geometry">
            <mxRectangle width="19" height="20" as="alternateBounds" />
          </mxGeometry>
        </mxCell>
        <mxCell id="hXuhkghR_avalVpv93T1-62" style="shape=partialRectangle;html=1;whiteSpace=wrap;connectable=0;strokeColor=#6c8ebf;overflow=hidden;fillColor=#dae8fc;top=0;left=0;bottom=0;right=0;pointerEvents=1;" parent="hXuhkghR_avalVpv93T1-51" vertex="1">
          <mxGeometry x="192" width="19" height="20" as="geometry">
            <mxRectangle width="19" height="20" as="alternateBounds" />
          </mxGeometry>
        </mxCell>
        <mxCell id="hXuhkghR_avalVpv93T1-63" style="shape=partialRectangle;html=1;whiteSpace=wrap;connectable=0;strokeColor=#6c8ebf;overflow=hidden;fillColor=#dae8fc;top=0;left=0;bottom=0;right=0;pointerEvents=1;" parent="hXuhkghR_avalVpv93T1-51" vertex="1">
          <mxGeometry x="211" width="19" height="20" as="geometry">
            <mxRectangle width="19" height="20" as="alternateBounds" />
          </mxGeometry>
        </mxCell>
        <mxCell id="hXuhkghR_avalVpv93T1-80" style="edgeStyle=orthogonalEdgeStyle;rounded=0;orthogonalLoop=1;jettySize=auto;html=1;exitX=0.5;exitY=0;exitDx=0;exitDy=0;entryX=0.5;entryY=1;entryDx=0;entryDy=0;" parent="hXuhkghR_avalVpv93T1-261" source="hXuhkghR_avalVpv93T1-33" target="hXuhkghR_avalVpv93T1-50" edge="1">
          <mxGeometry relative="1" as="geometry" />
        </mxCell>
        <mxCell id="hXuhkghR_avalVpv93T1-65" value="" style="shape=table;startSize=0;container=1;collapsible=0;childLayout=tableLayout;" parent="hXuhkghR_avalVpv93T1-261" vertex="1">
          <mxGeometry x="10" y="44" width="230" height="20" as="geometry" />
        </mxCell>
        <mxCell id="hXuhkghR_avalVpv93T1-66" value="" style="shape=tableRow;horizontal=0;startSize=0;swimlaneHead=0;swimlaneBody=0;strokeColor=inherit;top=0;left=0;bottom=0;right=0;collapsible=0;dropTarget=0;fillColor=none;points=[[0,0.5],[1,0.5]];portConstraint=eastwest;" parent="hXuhkghR_avalVpv93T1-65" vertex="1">
          <mxGeometry width="230" height="20" as="geometry" />
        </mxCell>
        <mxCell id="hXuhkghR_avalVpv93T1-67" value="" style="shape=partialRectangle;html=1;whiteSpace=wrap;connectable=0;strokeColor=#6c8ebf;overflow=hidden;fillColor=#dae8fc;top=0;left=0;bottom=0;right=0;pointerEvents=1;" parent="hXuhkghR_avalVpv93T1-66" vertex="1">
          <mxGeometry width="19" height="20" as="geometry">
            <mxRectangle width="19" height="20" as="alternateBounds" />
          </mxGeometry>
        </mxCell>
        <mxCell id="hXuhkghR_avalVpv93T1-68" value="" style="shape=partialRectangle;html=1;whiteSpace=wrap;connectable=0;strokeColor=#6c8ebf;overflow=hidden;fillColor=#dae8fc;top=0;left=0;bottom=0;right=0;pointerEvents=1;" parent="hXuhkghR_avalVpv93T1-66" vertex="1">
          <mxGeometry x="19" width="19" height="20" as="geometry">
            <mxRectangle width="19" height="20" as="alternateBounds" />
          </mxGeometry>
        </mxCell>
        <mxCell id="hXuhkghR_avalVpv93T1-69" value="" style="shape=partialRectangle;html=1;whiteSpace=wrap;connectable=0;strokeColor=#6c8ebf;overflow=hidden;fillColor=#dae8fc;top=0;left=0;bottom=0;right=0;pointerEvents=1;" parent="hXuhkghR_avalVpv93T1-66" vertex="1">
          <mxGeometry x="38" width="20" height="20" as="geometry">
            <mxRectangle width="20" height="20" as="alternateBounds" />
          </mxGeometry>
        </mxCell>
        <mxCell id="hXuhkghR_avalVpv93T1-70" value="" style="shape=partialRectangle;html=1;whiteSpace=wrap;connectable=0;strokeColor=#6c8ebf;overflow=hidden;fillColor=#dae8fc;top=0;left=0;bottom=0;right=0;pointerEvents=1;" parent="hXuhkghR_avalVpv93T1-66" vertex="1">
          <mxGeometry x="58" width="19" height="20" as="geometry">
            <mxRectangle width="19" height="20" as="alternateBounds" />
          </mxGeometry>
        </mxCell>
        <mxCell id="hXuhkghR_avalVpv93T1-71" value="" style="shape=partialRectangle;html=1;whiteSpace=wrap;connectable=0;strokeColor=#6c8ebf;overflow=hidden;fillColor=#dae8fc;top=0;left=0;bottom=0;right=0;pointerEvents=1;" parent="hXuhkghR_avalVpv93T1-66" vertex="1">
          <mxGeometry x="77" width="19" height="20" as="geometry">
            <mxRectangle width="19" height="20" as="alternateBounds" />
          </mxGeometry>
        </mxCell>
        <mxCell id="hXuhkghR_avalVpv93T1-72" style="shape=partialRectangle;html=1;whiteSpace=wrap;connectable=0;strokeColor=#6c8ebf;overflow=hidden;fillColor=#dae8fc;top=0;left=0;bottom=0;right=0;pointerEvents=1;" parent="hXuhkghR_avalVpv93T1-66" vertex="1">
          <mxGeometry x="96" width="19" height="20" as="geometry">
            <mxRectangle width="19" height="20" as="alternateBounds" />
          </mxGeometry>
        </mxCell>
        <mxCell id="hXuhkghR_avalVpv93T1-73" style="shape=partialRectangle;html=1;whiteSpace=wrap;connectable=0;strokeColor=#6c8ebf;overflow=hidden;fillColor=#dae8fc;top=0;left=0;bottom=0;right=0;pointerEvents=1;" parent="hXuhkghR_avalVpv93T1-66" vertex="1">
          <mxGeometry x="115" width="18" height="20" as="geometry">
            <mxRectangle width="18" height="20" as="alternateBounds" />
          </mxGeometry>
        </mxCell>
        <mxCell id="hXuhkghR_avalVpv93T1-74" style="shape=partialRectangle;html=1;whiteSpace=wrap;connectable=0;strokeColor=#6c8ebf;overflow=hidden;fillColor=#dae8fc;top=0;left=0;bottom=0;right=0;pointerEvents=1;" parent="hXuhkghR_avalVpv93T1-66" vertex="1">
          <mxGeometry x="133" width="20" height="20" as="geometry">
            <mxRectangle width="20" height="20" as="alternateBounds" />
          </mxGeometry>
        </mxCell>
        <mxCell id="hXuhkghR_avalVpv93T1-75" style="shape=partialRectangle;html=1;whiteSpace=wrap;connectable=0;strokeColor=#6c8ebf;overflow=hidden;fillColor=#dae8fc;top=0;left=0;bottom=0;right=0;pointerEvents=1;" parent="hXuhkghR_avalVpv93T1-66" vertex="1">
          <mxGeometry x="153" width="20" height="20" as="geometry">
            <mxRectangle width="20" height="20" as="alternateBounds" />
          </mxGeometry>
        </mxCell>
        <mxCell id="hXuhkghR_avalVpv93T1-76" style="shape=partialRectangle;html=1;whiteSpace=wrap;connectable=0;strokeColor=#6c8ebf;overflow=hidden;fillColor=#dae8fc;top=0;left=0;bottom=0;right=0;pointerEvents=1;" parent="hXuhkghR_avalVpv93T1-66" vertex="1">
          <mxGeometry x="173" width="19" height="20" as="geometry">
            <mxRectangle width="19" height="20" as="alternateBounds" />
          </mxGeometry>
        </mxCell>
        <mxCell id="hXuhkghR_avalVpv93T1-77" style="shape=partialRectangle;html=1;whiteSpace=wrap;connectable=0;strokeColor=#6c8ebf;overflow=hidden;fillColor=#dae8fc;top=0;left=0;bottom=0;right=0;pointerEvents=1;" parent="hXuhkghR_avalVpv93T1-66" vertex="1">
          <mxGeometry x="192" width="19" height="20" as="geometry">
            <mxRectangle width="19" height="20" as="alternateBounds" />
          </mxGeometry>
        </mxCell>
        <mxCell id="hXuhkghR_avalVpv93T1-78" style="shape=partialRectangle;html=1;whiteSpace=wrap;connectable=0;strokeColor=#6c8ebf;overflow=hidden;fillColor=#dae8fc;top=0;left=0;bottom=0;right=0;pointerEvents=1;" parent="hXuhkghR_avalVpv93T1-66" vertex="1">
          <mxGeometry x="211" width="19" height="20" as="geometry">
            <mxRectangle width="19" height="20" as="alternateBounds" />
          </mxGeometry>
        </mxCell>
        <mxCell id="hXuhkghR_avalVpv93T1-49" style="edgeStyle=orthogonalEdgeStyle;rounded=0;orthogonalLoop=1;jettySize=auto;html=1;exitX=0.5;exitY=0;exitDx=0;exitDy=0;entryX=0.5;entryY=1;entryDx=0;entryDy=0;" parent="hXuhkghR_avalVpv93T1-261" source="hXuhkghR_avalVpv93T1-50" target="hXuhkghR_avalVpv93T1-65" edge="1">
          <mxGeometry relative="1" as="geometry" />
        </mxCell>
        <mxCell id="hXuhkghR_avalVpv93T1-81" value="" style="shape=table;startSize=0;container=1;collapsible=0;childLayout=tableLayout;" parent="hXuhkghR_avalVpv93T1-261" vertex="1">
          <mxGeometry x="10" y="9" width="230" height="20" as="geometry" />
        </mxCell>
        <mxCell id="hXuhkghR_avalVpv93T1-82" value="" style="shape=tableRow;horizontal=0;startSize=0;swimlaneHead=0;swimlaneBody=0;strokeColor=inherit;top=0;left=0;bottom=0;right=0;collapsible=0;dropTarget=0;fillColor=none;points=[[0,0.5],[1,0.5]];portConstraint=eastwest;" parent="hXuhkghR_avalVpv93T1-81" vertex="1">
          <mxGeometry width="230" height="20" as="geometry" />
        </mxCell>
        <mxCell id="hXuhkghR_avalVpv93T1-83" value="" style="shape=partialRectangle;html=1;whiteSpace=wrap;connectable=0;strokeColor=#6c8ebf;overflow=hidden;fillColor=#dae8fc;top=0;left=0;bottom=0;right=0;pointerEvents=1;" parent="hXuhkghR_avalVpv93T1-82" vertex="1">
          <mxGeometry width="19" height="20" as="geometry">
            <mxRectangle width="19" height="20" as="alternateBounds" />
          </mxGeometry>
        </mxCell>
        <mxCell id="hXuhkghR_avalVpv93T1-84" value="" style="shape=partialRectangle;html=1;whiteSpace=wrap;connectable=0;strokeColor=#6c8ebf;overflow=hidden;fillColor=#dae8fc;top=0;left=0;bottom=0;right=0;pointerEvents=1;" parent="hXuhkghR_avalVpv93T1-82" vertex="1">
          <mxGeometry x="19" width="19" height="20" as="geometry">
            <mxRectangle width="19" height="20" as="alternateBounds" />
          </mxGeometry>
        </mxCell>
        <mxCell id="hXuhkghR_avalVpv93T1-85" value="" style="shape=partialRectangle;html=1;whiteSpace=wrap;connectable=0;strokeColor=#6c8ebf;overflow=hidden;fillColor=#dae8fc;top=0;left=0;bottom=0;right=0;pointerEvents=1;" parent="hXuhkghR_avalVpv93T1-82" vertex="1">
          <mxGeometry x="38" width="20" height="20" as="geometry">
            <mxRectangle width="20" height="20" as="alternateBounds" />
          </mxGeometry>
        </mxCell>
        <mxCell id="hXuhkghR_avalVpv93T1-86" value="" style="shape=partialRectangle;html=1;whiteSpace=wrap;connectable=0;strokeColor=#6c8ebf;overflow=hidden;fillColor=#dae8fc;top=0;left=0;bottom=0;right=0;pointerEvents=1;" parent="hXuhkghR_avalVpv93T1-82" vertex="1">
          <mxGeometry x="58" width="19" height="20" as="geometry">
            <mxRectangle width="19" height="20" as="alternateBounds" />
          </mxGeometry>
        </mxCell>
        <mxCell id="hXuhkghR_avalVpv93T1-87" value="" style="shape=partialRectangle;html=1;whiteSpace=wrap;connectable=0;strokeColor=#6c8ebf;overflow=hidden;fillColor=#dae8fc;top=0;left=0;bottom=0;right=0;pointerEvents=1;" parent="hXuhkghR_avalVpv93T1-82" vertex="1">
          <mxGeometry x="77" width="19" height="20" as="geometry">
            <mxRectangle width="19" height="20" as="alternateBounds" />
          </mxGeometry>
        </mxCell>
        <mxCell id="hXuhkghR_avalVpv93T1-88" style="shape=partialRectangle;html=1;whiteSpace=wrap;connectable=0;strokeColor=#6c8ebf;overflow=hidden;fillColor=#dae8fc;top=0;left=0;bottom=0;right=0;pointerEvents=1;" parent="hXuhkghR_avalVpv93T1-82" vertex="1">
          <mxGeometry x="96" width="19" height="20" as="geometry">
            <mxRectangle width="19" height="20" as="alternateBounds" />
          </mxGeometry>
        </mxCell>
        <mxCell id="hXuhkghR_avalVpv93T1-89" style="shape=partialRectangle;html=1;whiteSpace=wrap;connectable=0;strokeColor=#6c8ebf;overflow=hidden;fillColor=#dae8fc;top=0;left=0;bottom=0;right=0;pointerEvents=1;" parent="hXuhkghR_avalVpv93T1-82" vertex="1">
          <mxGeometry x="115" width="18" height="20" as="geometry">
            <mxRectangle width="18" height="20" as="alternateBounds" />
          </mxGeometry>
        </mxCell>
        <mxCell id="hXuhkghR_avalVpv93T1-90" style="shape=partialRectangle;html=1;whiteSpace=wrap;connectable=0;strokeColor=#6c8ebf;overflow=hidden;fillColor=#dae8fc;top=0;left=0;bottom=0;right=0;pointerEvents=1;" parent="hXuhkghR_avalVpv93T1-82" vertex="1">
          <mxGeometry x="133" width="20" height="20" as="geometry">
            <mxRectangle width="20" height="20" as="alternateBounds" />
          </mxGeometry>
        </mxCell>
        <mxCell id="hXuhkghR_avalVpv93T1-91" style="shape=partialRectangle;html=1;whiteSpace=wrap;connectable=0;strokeColor=#6c8ebf;overflow=hidden;fillColor=#dae8fc;top=0;left=0;bottom=0;right=0;pointerEvents=1;" parent="hXuhkghR_avalVpv93T1-82" vertex="1">
          <mxGeometry x="153" width="20" height="20" as="geometry">
            <mxRectangle width="20" height="20" as="alternateBounds" />
          </mxGeometry>
        </mxCell>
        <mxCell id="hXuhkghR_avalVpv93T1-92" style="shape=partialRectangle;html=1;whiteSpace=wrap;connectable=0;strokeColor=#6c8ebf;overflow=hidden;fillColor=#dae8fc;top=0;left=0;bottom=0;right=0;pointerEvents=1;" parent="hXuhkghR_avalVpv93T1-82" vertex="1">
          <mxGeometry x="173" width="19" height="20" as="geometry">
            <mxRectangle width="19" height="20" as="alternateBounds" />
          </mxGeometry>
        </mxCell>
        <mxCell id="hXuhkghR_avalVpv93T1-93" style="shape=partialRectangle;html=1;whiteSpace=wrap;connectable=0;strokeColor=#6c8ebf;overflow=hidden;fillColor=#dae8fc;top=0;left=0;bottom=0;right=0;pointerEvents=1;" parent="hXuhkghR_avalVpv93T1-82" vertex="1">
          <mxGeometry x="192" width="19" height="20" as="geometry">
            <mxRectangle width="19" height="20" as="alternateBounds" />
          </mxGeometry>
        </mxCell>
        <mxCell id="hXuhkghR_avalVpv93T1-94" style="shape=partialRectangle;html=1;whiteSpace=wrap;connectable=0;strokeColor=#6c8ebf;overflow=hidden;fillColor=#dae8fc;top=0;left=0;bottom=0;right=0;pointerEvents=1;" parent="hXuhkghR_avalVpv93T1-82" vertex="1">
          <mxGeometry x="211" width="19" height="20" as="geometry">
            <mxRectangle width="19" height="20" as="alternateBounds" />
          </mxGeometry>
        </mxCell>
        <mxCell id="hXuhkghR_avalVpv93T1-95" style="edgeStyle=orthogonalEdgeStyle;rounded=0;orthogonalLoop=1;jettySize=auto;html=1;exitX=0.5;exitY=0;exitDx=0;exitDy=0;entryX=0.5;entryY=1;entryDx=0;entryDy=0;" parent="hXuhkghR_avalVpv93T1-261" source="hXuhkghR_avalVpv93T1-65" target="hXuhkghR_avalVpv93T1-81" edge="1">
          <mxGeometry relative="1" as="geometry" />
        </mxCell>
        <mxCell id="hXuhkghR_avalVpv93T1-96" value="x5" style="text;html=1;align=center;verticalAlign=middle;resizable=0;points=[];autosize=1;strokeColor=none;fillColor=none;" parent="6xhskzPP5MsPAM02uVho-1" vertex="1">
          <mxGeometry y="4" width="40" height="30" as="geometry" />
        </mxCell>
        <mxCell id="hXuhkghR_avalVpv93T1-79" value="x4" style="text;html=1;align=center;verticalAlign=middle;resizable=0;points=[];autosize=1;strokeColor=none;fillColor=none;" parent="6xhskzPP5MsPAM02uVho-1" vertex="1">
          <mxGeometry y="39" width="40" height="30" as="geometry" />
        </mxCell>
        <mxCell id="hXuhkghR_avalVpv93T1-64" value="x3" style="text;html=1;align=center;verticalAlign=middle;resizable=0;points=[];autosize=1;strokeColor=none;fillColor=none;" parent="6xhskzPP5MsPAM02uVho-1" vertex="1">
          <mxGeometry y="74" width="40" height="30" as="geometry" />
        </mxCell>
        <mxCell id="hXuhkghR_avalVpv93T1-47" value="x2" style="text;html=1;align=center;verticalAlign=middle;resizable=0;points=[];autosize=1;strokeColor=none;fillColor=none;" parent="6xhskzPP5MsPAM02uVho-1" vertex="1">
          <mxGeometry y="109" width="40" height="30" as="geometry" />
        </mxCell>
        <mxCell id="hXuhkghR_avalVpv93T1-32" value="x1" style="text;html=1;align=center;verticalAlign=middle;resizable=0;points=[];autosize=1;strokeColor=none;fillColor=none;" parent="6xhskzPP5MsPAM02uVho-1" vertex="1">
          <mxGeometry y="144" width="40" height="30" as="geometry" />
        </mxCell>
        <mxCell id="DDwUIjJJvKXzeer0RHnv-1" style="edgeStyle=orthogonalEdgeStyle;rounded=0;orthogonalLoop=1;jettySize=auto;html=1;exitX=1;exitY=0.5;exitDx=0;exitDy=0;entryX=0;entryY=0.5;entryDx=0;entryDy=0;" edge="1" parent="1" source="6xhskzPP5MsPAM02uVho-2" target="6xhskzPP5MsPAM02uVho-7">
          <mxGeometry relative="1" as="geometry" />
        </mxCell>
        <mxCell id="DDwUIjJJvKXzeer0RHnv-2" value="state" style="edgeLabel;html=1;align=center;verticalAlign=middle;resizable=0;points=[];" vertex="1" connectable="0" parent="DDwUIjJJvKXzeer0RHnv-1">
          <mxGeometry y="2" relative="1" as="geometry">
            <mxPoint as="offset" />
          </mxGeometry>
        </mxCell>
        <mxCell id="6xhskzPP5MsPAM02uVho-7" value=".&lt;br&gt;.&lt;br&gt;." style="rounded=1;whiteSpace=wrap;html=1;fillColor=#ffe6cc;strokeColor=#d79b00;" parent="1" vertex="1">
          <mxGeometry x="540" y="370" width="140" height="200" as="geometry" />
        </mxCell>
        <mxCell id="6xhskzPP5MsPAM02uVho-8" value="Transformer Layer" style="rounded=0;whiteSpace=wrap;html=1;" parent="1" vertex="1">
          <mxGeometry x="550" y="400" width="120" height="30" as="geometry" />
        </mxCell>
        <mxCell id="6xhskzPP5MsPAM02uVho-9" value="Transformer Layer" style="rounded=0;whiteSpace=wrap;html=1;" parent="1" vertex="1">
          <mxGeometry x="550" y="520" width="120" height="30" as="geometry" />
        </mxCell>
        <mxCell id="6xhskzPP5MsPAM02uVho-10" value="解码器" style="text;html=1;align=center;verticalAlign=middle;resizable=0;points=[];autosize=1;strokeColor=none;fillColor=none;" parent="1" vertex="1">
          <mxGeometry x="580" y="340" width="60" height="30" as="geometry" />
        </mxCell>
        <mxCell id="DDwUIjJJvKXzeer0RHnv-3" value="" style="group" vertex="1" connectable="0" parent="1">
          <mxGeometry x="344" y="340" width="140" height="230" as="geometry" />
        </mxCell>
        <mxCell id="6xhskzPP5MsPAM02uVho-2" value=".&lt;br&gt;.&lt;br&gt;." style="rounded=1;whiteSpace=wrap;html=1;fillColor=#e1d5e7;strokeColor=#9673a6;" parent="DDwUIjJJvKXzeer0RHnv-3" vertex="1">
          <mxGeometry y="30" width="140" height="200" as="geometry" />
        </mxCell>
        <mxCell id="6xhskzPP5MsPAM02uVho-3" value="Transformer Layer" style="rounded=0;whiteSpace=wrap;html=1;" parent="DDwUIjJJvKXzeer0RHnv-3" vertex="1">
          <mxGeometry x="10" y="60" width="120" height="30" as="geometry" />
        </mxCell>
        <mxCell id="6xhskzPP5MsPAM02uVho-5" value="Transformer Layer" style="rounded=0;whiteSpace=wrap;html=1;" parent="DDwUIjJJvKXzeer0RHnv-3" vertex="1">
          <mxGeometry x="10" y="180" width="120" height="30" as="geometry" />
        </mxCell>
        <mxCell id="6xhskzPP5MsPAM02uVho-6" value="编码器" style="text;html=1;align=center;verticalAlign=middle;resizable=0;points=[];autosize=1;strokeColor=none;fillColor=none;" parent="DDwUIjJJvKXzeer0RHnv-3" vertex="1">
          <mxGeometry x="40" width="60" height="30" as="geometry" />
        </mxCell>
        <mxCell id="DDwUIjJJvKXzeer0RHnv-4" style="edgeStyle=orthogonalEdgeStyle;rounded=0;orthogonalLoop=1;jettySize=auto;html=1;exitX=1;exitY=0.5;exitDx=0;exitDy=0;entryX=-0.029;entryY=0.145;entryDx=0;entryDy=0;entryPerimeter=0;" edge="1" parent="1" source="hXuhkghR_avalVpv93T1-82" target="6xhskzPP5MsPAM02uVho-2">
          <mxGeometry relative="1" as="geometry" />
        </mxCell>
        <mxCell id="DDwUIjJJvKXzeer0RHnv-5" style="edgeStyle=orthogonalEdgeStyle;rounded=0;orthogonalLoop=1;jettySize=auto;html=1;exitX=1;exitY=0.5;exitDx=0;exitDy=0;entryX=-0.029;entryY=0.32;entryDx=0;entryDy=0;entryPerimeter=0;" edge="1" parent="1" source="hXuhkghR_avalVpv93T1-66" target="6xhskzPP5MsPAM02uVho-2">
          <mxGeometry relative="1" as="geometry" />
        </mxCell>
        <mxCell id="DDwUIjJJvKXzeer0RHnv-7" style="edgeStyle=orthogonalEdgeStyle;rounded=0;orthogonalLoop=1;jettySize=auto;html=1;exitX=1;exitY=0.5;exitDx=0;exitDy=0;entryX=-0.029;entryY=0.67;entryDx=0;entryDy=0;entryPerimeter=0;" edge="1" parent="1" source="hXuhkghR_avalVpv93T1-34" target="6xhskzPP5MsPAM02uVho-2">
          <mxGeometry relative="1" as="geometry" />
        </mxCell>
        <mxCell id="DDwUIjJJvKXzeer0RHnv-8" style="edgeStyle=orthogonalEdgeStyle;rounded=0;orthogonalLoop=1;jettySize=auto;html=1;exitX=1;exitY=0.5;exitDx=0;exitDy=0;entryX=-0.029;entryY=0.845;entryDx=0;entryDy=0;entryPerimeter=0;" edge="1" parent="1" source="hXuhkghR_avalVpv93T1-16" target="6xhskzPP5MsPAM02uVho-2">
          <mxGeometry relative="1" as="geometry" />
        </mxCell>
      </root>
    </mxGraphModel>
  </diagram>
</mxfile>
